<svg width="418" height="419" xmlns="http://www.w3.org/2000/svg">
 <g>
  <title>Layer 1</title>
  <ellipse fill="#565bef" stroke="#000" cx="210" cy="209.5" id="svg_13" rx="209" ry="209.5"/>
  <path fill="#ffffff" stroke="#007f7f" d="m288.25462,93.1278c-21.27047,-18.96105 -44.21184,-34.15003 -63.03083,-36.22075c-1.0245,-0.13431 -2.08558,-0.21267 -3.20764,-0.23505l-123.85413,0c-1.97581,0 -3.92723,0.70516 -5.31762,2.01475c-1.37819,1.276 -2.19535,3.0669 -2.19535,4.89137l0,288.22133c0,1.81327 0.76837,3.5482 2.19535,4.86898c1.42697,1.29839 3.30521,2.00356 5.31762,2.00356l223.97411,0c1.97581,0 3.86625,-0.69397 5.29322,-2.00356c1.42697,-1.30959 2.21974,-3.04451 2.21974,-4.86898l0,-191.7931c-0.43907,-22.263 -19.44102,-46.54075 -41.39447,-66.87854zm26.34416,251.74315l-208.94818,0l0,-274.43148l116.37775,0l0,0.02239c5.0737,-0.27983 9.45219,4.32052 12.80618,14.842c3.04909,10.01779 3.81746,23.08009 3.80527,32.13527c0.0244,6.63749 -0.3293,11.09233 -0.3293,11.09233l-0.59762,7.29787l8.00082,0.07835c0.03659,0 18.48969,0.20148 36.58911,3.97353c17.39202,3.44746 30.99097,10.32001 32.2594,18.09918c0.04878,0.69397 0.06098,1.38794 0.04878,2.03714l0,184.85341l-0.0122,0l-0.00001,0z" id="svg_1"/>
  <line fill="#28bfad" stroke="#ffffff" stroke-width="13" x1="245.59624" y1="216.32293" x2="176.0958" y2="307.59472" id="svg_9" transform="rotate(-18.0712, 210.846, 261.959)"/>
  <path id="svg_3" d="m272.13316,270.33498l-36.17556,-39.50001l23.82446,0l36.17556,39.50001l-36.17556,39.49998l-23.82446,0l36.17556,-39.49998z" stroke="#000" fill="#ffffff"/>
  <path transform="rotate(-178.838, 152.958, 266.335)" id="svg_4" d="m159.13316,266.33498l-36.17556,-39.50001l23.82446,0l36.17556,39.50001l-36.17556,39.49998l-23.82446,0l36.17556,-39.49998z" stroke="#000" fill="#ffffff"/>
 </g>

</svg>